<?xml version="1.0" standalone="no"?>
<svg xmlns:xlink="http://www.w3.org/1999/xlink" id="wave" style="transform:rotate(180deg); transition: 0.3s" viewBox="0 0 1440 130" version="1.1" xmlns="http://www.w3.org/2000/svg"><defs><linearGradient id="sw-gradient-0" x1="0" x2="0" y1="1" y2="0"><stop stop-color="rgba(27, 42, 78, 1)" offset="0%"/><stop stop-color="rgba(27, 42, 78, 1)" offset="100%"/></linearGradient></defs><path style="transform:translate(0, 0px); opacity:1" fill="url(#sw-gradient-0)" d="M0,52L60,43.3C120,35,240,17,360,23.8C480,30,600,61,720,62.8C840,65,960,39,1080,39C1200,39,1320,65,1440,65C1560,65,1680,39,1800,36.8C1920,35,2040,56,2160,60.7C2280,65,2400,52,2520,47.7C2640,43,2760,48,2880,54.2C3000,61,3120,69,3240,65C3360,61,3480,43,3600,36.8C3720,30,3840,35,3960,32.5C4080,30,4200,22,4320,34.7C4440,48,4560,82,4680,80.2C4800,78,4920,39,5040,36.8C5160,35,5280,69,5400,78C5520,87,5640,69,5760,69.3C5880,69,6000,87,6120,88.8C6240,91,6360,78,6480,80.2C6600,82,6720,100,6840,104C6960,108,7080,100,7200,88.8C7320,78,7440,65,7560,49.8C7680,35,7800,17,7920,28.2C8040,39,8160,78,8280,95.3C8400,113,8520,108,8580,106.2L8640,104L8640,130L8580,130C8520,130,8400,130,8280,130C8160,130,8040,130,7920,130C7800,130,7680,130,7560,130C7440,130,7320,130,7200,130C7080,130,6960,130,6840,130C6720,130,6600,130,6480,130C6360,130,6240,130,6120,130C6000,130,5880,130,5760,130C5640,130,5520,130,5400,130C5280,130,5160,130,5040,130C4920,130,4800,130,4680,130C4560,130,4440,130,4320,130C4200,130,4080,130,3960,130C3840,130,3720,130,3600,130C3480,130,3360,130,3240,130C3120,130,3000,130,2880,130C2760,130,2640,130,2520,130C2400,130,2280,130,2160,130C2040,130,1920,130,1800,130C1680,130,1560,130,1440,130C1320,130,1200,130,1080,130C960,130,840,130,720,130C600,130,480,130,360,130C240,130,120,130,60,130L0,130Z"/></svg>