<?xml version="1.0" standalone="no"?>
<svg xmlns:xlink="http://www.w3.org/1999/xlink" id="wave" style="transform:rotate(0deg); transition: 0.3s" viewBox="0 0 1440 490" version="1.1" xmlns="http://www.w3.org/2000/svg"><defs><linearGradient id="sw-gradient-0" x1="0" x2="0" y1="1" y2="0"><stop stop-color="rgba(27, 42, 78, 1)" offset="0%"/><stop stop-color="rgba(27, 42, 78, 1)" offset="100%"/></linearGradient></defs><path style="transform:translate(0, 0px); opacity:1" fill="url(#sw-gradient-0)" d="M0,343L26.7,318.5C53.3,294,107,245,160,245C213.3,245,267,294,320,277.7C373.3,261,427,180,480,187.8C533.3,196,587,294,640,318.5C693.3,343,747,294,800,253.2C853.3,212,907,180,960,204.2C1013.3,229,1067,310,1120,343C1173.3,376,1227,359,1280,318.5C1333.3,278,1387,212,1440,212.3C1493.3,212,1547,278,1600,269.5C1653.3,261,1707,180,1760,155.2C1813.3,131,1867,163,1920,147C1973.3,131,2027,65,2080,65.3C2133.3,65,2187,131,2240,138.8C2293.3,147,2347,98,2400,81.7C2453.3,65,2507,82,2560,73.5C2613.3,65,2667,33,2720,65.3C2773.3,98,2827,196,2880,204.2C2933.3,212,2987,131,3040,106.2C3093.3,82,3147,114,3200,155.2C3253.3,196,3307,245,3360,269.5C3413.3,294,3467,294,3520,269.5C3573.3,245,3627,196,3680,179.7C3733.3,163,3787,180,3813,187.8L3840,196L3840,490L3813.3,490C3786.7,490,3733,490,3680,490C3626.7,490,3573,490,3520,490C3466.7,490,3413,490,3360,490C3306.7,490,3253,490,3200,490C3146.7,490,3093,490,3040,490C2986.7,490,2933,490,2880,490C2826.7,490,2773,490,2720,490C2666.7,490,2613,490,2560,490C2506.7,490,2453,490,2400,490C2346.7,490,2293,490,2240,490C2186.7,490,2133,490,2080,490C2026.7,490,1973,490,1920,490C1866.7,490,1813,490,1760,490C1706.7,490,1653,490,1600,490C1546.7,490,1493,490,1440,490C1386.7,490,1333,490,1280,490C1226.7,490,1173,490,1120,490C1066.7,490,1013,490,960,490C906.7,490,853,490,800,490C746.7,490,693,490,640,490C586.7,490,533,490,480,490C426.7,490,373,490,320,490C266.7,490,213,490,160,490C106.7,490,53,490,27,490L0,490Z"/></svg>