<?xml version="1.0" standalone="no"?>
<svg xmlns:xlink="http://www.w3.org/1999/xlink" id="wave" style="transform:rotate(180deg); transition: 0.3s" viewBox="0 0 1440 220" version="1.1" xmlns="http://www.w3.org/2000/svg"><defs><linearGradient id="sw-gradient-0" x1="0" x2="0" y1="1" y2="0"><stop stop-color="rgba(27, 42, 78, 1)" offset="0%"/><stop stop-color="rgba(27, 42, 78, 1)" offset="100%"/></linearGradient></defs><path style="transform:translate(0, 0px); opacity:1" fill="url(#sw-gradient-0)" d="M0,0L60,29.3C120,59,240,117,360,146.7C480,176,600,176,720,150.3C840,125,960,73,1080,66C1200,59,1320,95,1440,99C1560,103,1680,73,1800,77C1920,81,2040,117,2160,121C2280,125,2400,95,2520,84.3C2640,73,2760,81,2880,102.7C3000,125,3120,161,3240,168.7C3360,176,3480,154,3600,128.3C3720,103,3840,73,3960,80.7C4080,88,4200,132,4320,143C4440,154,4560,132,4680,113.7C4800,95,4920,81,5040,62.3C5160,44,5280,22,5400,25.7C5520,29,5640,59,5760,77C5880,95,6000,103,6120,113.7C6240,125,6360,139,6480,150.3C6600,161,6720,169,6840,146.7C6960,125,7080,73,7200,73.3C7320,73,7440,125,7560,146.7C7680,169,7800,161,7920,143C8040,125,8160,95,8280,73.3C8400,51,8520,37,8580,29.3L8640,22L8640,220L8580,220C8520,220,8400,220,8280,220C8160,220,8040,220,7920,220C7800,220,7680,220,7560,220C7440,220,7320,220,7200,220C7080,220,6960,220,6840,220C6720,220,6600,220,6480,220C6360,220,6240,220,6120,220C6000,220,5880,220,5760,220C5640,220,5520,220,5400,220C5280,220,5160,220,5040,220C4920,220,4800,220,4680,220C4560,220,4440,220,4320,220C4200,220,4080,220,3960,220C3840,220,3720,220,3600,220C3480,220,3360,220,3240,220C3120,220,3000,220,2880,220C2760,220,2640,220,2520,220C2400,220,2280,220,2160,220C2040,220,1920,220,1800,220C1680,220,1560,220,1440,220C1320,220,1200,220,1080,220C960,220,840,220,720,220C600,220,480,220,360,220C240,220,120,220,60,220L0,220Z"/></svg>