<?xml version="1.0" standalone="no"?>
<svg xmlns:xlink="http://www.w3.org/1999/xlink" id="wave" style="transform:rotate(0deg); transition: 0.3s" viewBox="0 0 1440 150" version="1.1" xmlns="http://www.w3.org/2000/svg"><defs><linearGradient id="sw-gradient-0" x1="0" x2="0" y1="1" y2="0"><stop stop-color="rgba(27, 42, 78, 1)" offset="0%"/><stop stop-color="rgba(27, 42, 78, 1)" offset="100%"/></linearGradient></defs><path style="transform:translate(0, 0px); opacity:1" fill="url(#sw-gradient-0)" d="M0,75L80,80C160,85,320,95,480,82.5C640,70,800,35,960,25C1120,15,1280,30,1440,52.5C1600,75,1760,105,1920,110C2080,115,2240,95,2400,87.5C2560,80,2720,85,2880,82.5C3040,80,3200,70,3360,62.5C3520,55,3680,50,3840,62.5C4000,75,4160,105,4320,105C4480,105,4640,75,4800,62.5C4960,50,5120,55,5280,50C5440,45,5600,30,5760,20C5920,10,6080,5,6240,25C6400,45,6560,90,6720,105C6880,120,7040,105,7200,90C7360,75,7520,60,7680,62.5C7840,65,8000,85,8160,95C8320,105,8480,105,8640,107.5C8800,110,8960,115,9120,117.5C9280,120,9440,120,9600,122.5C9760,125,9920,130,10080,117.5C10240,105,10400,75,10560,67.5C10720,60,10880,75,11040,67.5C11200,60,11360,30,11440,15L11520,0L11520,150L11440,150C11360,150,11200,150,11040,150C10880,150,10720,150,10560,150C10400,150,10240,150,10080,150C9920,150,9760,150,9600,150C9440,150,9280,150,9120,150C8960,150,8800,150,8640,150C8480,150,8320,150,8160,150C8000,150,7840,150,7680,150C7520,150,7360,150,7200,150C7040,150,6880,150,6720,150C6560,150,6400,150,6240,150C6080,150,5920,150,5760,150C5600,150,5440,150,5280,150C5120,150,4960,150,4800,150C4640,150,4480,150,4320,150C4160,150,4000,150,3840,150C3680,150,3520,150,3360,150C3200,150,3040,150,2880,150C2720,150,2560,150,2400,150C2240,150,2080,150,1920,150C1760,150,1600,150,1440,150C1280,150,1120,150,960,150C800,150,640,150,480,150C320,150,160,150,80,150L0,150Z"/></svg>